######## ######## ######## ##          ######## ########  ######## ######## 
##       ##       ##       ##          ##       ##     ## ##       ##       
##       ##       ##       ##          ##       ##     ## ##       ##       
######   ######   ######   ##          ######   ########  ######   ######   
##       ##       ##       ##          ##       ##   ##   ##       ##       
##       ##       ##       ##          ##       ##    ##  ##       ##       
##       ######## ######## ########    ##       ##     ## ######## ######## 

Genre:Thriller | War 
Language:English
IMDb: 
http://www.imdb.com/title/tt1561768/
Source:Bluray.720p.DTS.x264-CHD


Format : MPEG-4
Format profile : Base Media
Codec ID : isom
File size : 2.05 GiB
Duration : 1h 24mn
Overall bit rate : 3 466 Kbps


Video
Format profile : High@L4.1
Format settings, CABAC : Yes
Format settings, ReFrames : 3 frames
Format settings, GOP : N=1
Codec ID : avc1
Codec ID/Info : Advanced Video Coding
Duration : 1h 24mn
Bit rate mode : Variable
Bit rate : 3 117 Kbps
Maximum bit rate : 12.6 Mbps
Width : 1 280 pixels
Height : 688 pixels
Display aspect ratio : 1.860
Frame rate mode : Constant
Frame rate : 24.000 fps
Color space : YUV
Chroma subsampling : 4:2:0
Bit depth : 8 bits
Scan type : Progressive
Bits/(Pixel*Frame) : 0.147
Stream size : 1.78 GiB (87%)
Writing library : x264 


Audio
ID : 2
Format : AAC
Format/Info : Advanced Audio Codec
Format version : Version 4
Format profile : LC
Format settings, SBR : No
Codec ID : 40
Duration : 1h 24mn
Bit rate mode : Variable
Bit rate : 445 Kbps
Maximum bit rate : 549 Kbps
Channel(s) : 6 channels
Channel positions : Front: L C R, Side: L R, LFE
Sampling rate : 48.0 KHz
Stream size : 269 MiB (13%)



Plot:
A thriller centered on a political prisoner who attempts his escape.






================================== 
http://thepiratebay.org/user/hiest
==================================






Screen Shots:
 
http://www.postimg.com/31000/photo-30303.jpg
 
http://www.postimg.com/31000/photo-30304.jpg
 
http://www.postimg.com/31000/photo-30302.jpg

######## ######## ######## ##          ######## ########  ######## ######## 
##       ##       ##       ##          ##       ##     ## ##       ##       
##       ##       ##       ##          ##       ##     ## ##       ##       
######   ######   ######   ##          ######   ########  ######   ######   
##       ##       ##       ##          ##       ##   ##   ##       ##       
##       ##       ##       ##          ##       ##    ##  ##       ##       
##       ######## ######## ########    ##       ##     ## ######## ######## 